<?xml version="1.0" standalone="no"?>
<svg xmlns:xlink="http://www.w3.org/1999/xlink" id="wave" style="transform:rotate(180deg); transition: 0.3s" viewBox="0 0 1440 490" version="1.1" xmlns="http://www.w3.org/2000/svg"><defs><linearGradient id="sw-gradient-0" x1="0" x2="0" y1="1" y2="0"><stop stop-color="rgba(179.07, 49.29, 223.542, 1)" offset="0%"/><stop stop-color="rgba(255, 11, 209.809, 1)" offset="100%"/></linearGradient></defs><path style="transform:translate(0, 0px); opacity:1" fill="url(#sw-gradient-0)" d="M0,98L40,89.8C80,82,160,65,240,81.7C320,98,400,147,480,147C560,147,640,98,720,122.5C800,147,880,245,960,269.5C1040,294,1120,245,1200,196C1280,147,1360,98,1440,122.5C1520,147,1600,245,1680,236.8C1760,229,1840,114,1920,65.3C2000,16,2080,33,2160,73.5C2240,114,2320,180,2400,228.7C2480,278,2560,310,2640,285.8C2720,261,2800,180,2880,138.8C2960,98,3040,98,3120,155.2C3200,212,3280,327,3360,367.5C3440,408,3520,376,3600,302.2C3680,229,3760,114,3840,73.5C3920,33,4000,65,4080,122.5C4160,180,4240,261,4320,261.3C4400,261,4480,180,4560,130.7C4640,82,4720,65,4800,114.3C4880,163,4960,278,5040,318.5C5120,359,5200,327,5280,318.5C5360,310,5440,327,5520,318.5C5600,310,5680,278,5720,261.3L5760,245L5760,490L5720,490C5680,490,5600,490,5520,490C5440,490,5360,490,5280,490C5200,490,5120,490,5040,490C4960,490,4880,490,4800,490C4720,490,4640,490,4560,490C4480,490,4400,490,4320,490C4240,490,4160,490,4080,490C4000,490,3920,490,3840,490C3760,490,3680,490,3600,490C3520,490,3440,490,3360,490C3280,490,3200,490,3120,490C3040,490,2960,490,2880,490C2800,490,2720,490,2640,490C2560,490,2480,490,2400,490C2320,490,2240,490,2160,490C2080,490,2000,490,1920,490C1840,490,1760,490,1680,490C1600,490,1520,490,1440,490C1360,490,1280,490,1200,490C1120,490,1040,490,960,490C880,490,800,490,720,490C640,490,560,490,480,490C400,490,320,490,240,490C160,490,80,490,40,490L0,490Z"/></svg>